<svg xmlns="http://www.w3.org/2000/svg" viewBox="0 0 512 512">
	<path d="M256 0c-76.544.094-138.573 62.122-138.667 138.667V224c0 5.891 4.776 10.667 10.667 10.667h42.667c5.891 0 10.667-4.776 10.667-10.667v-85.333C181.333 97.429 214.763 64 256 64s74.667 33.429 74.667 74.667V224c0 5.891 4.776 10.667 10.667 10.667H384c5.891 0 10.667-4.776 10.667-10.667v-85.333C394.573 62.122 332.544.094 256 0z" fill="#455a64"/>
	<path d="M128 213.333h256c29.455 0 53.333 23.878 53.333 53.333v192C437.333 488.122 413.455 512 384 512H128c-29.455 0-53.333-23.878-53.333-53.333v-192c0-29.456 23.878-53.334 53.333-53.334z" fill="#ffc107"/>
	<path d="M309.333 330.667c.124-29.455-23.653-53.434-53.108-53.558-29.455-.124-53.434 23.653-53.558 53.108a53.331 53.331 0 0029.674 48.023l-8.235 57.6c-.825 5.833 3.235 11.23 9.068 12.055.494.07.993.105 1.492.105h42.667c5.891.06 10.715-4.667 10.774-10.558.005-.543-.03-1.086-.108-1.623l-8.235-57.6a53.522 53.522 0 0029.569-47.552z" fill="#455a64"/>
</svg>